<?xml version="1.0" encoding="UTF-8" standalone="no"?>
<svg width="19px" height="18px" viewBox="0 0 19 18" version="1.1" xmlns="http://www.w3.org/2000/svg" xmlns:xlink="http://www.w3.org/1999/xlink" xmlns:sketch="http://www.bohemiancoding.com/sketch/ns">
    <g stroke="none" stroke-width="1" fill="none" fill-rule="evenodd">
        <g transform="translate(-686.000000, -450.000000)" fill="#FFFFFF">
            <g transform="translate(660.000000, 165.000000)">
                <g transform="translate(0.000000, 269.000000)">
                    <g transform="translate(26.000000, 16.000000)">
                        <path d="M16.7654784,4.275 L15.8758749,8.59336071 L4.69984059,9.72409821 L3.47390304,4.275 L16.7654784,4.275 Z M16.8045463,9.72806786 L18.6737251,3.05357143 L3.19915207,3.05357143 L2.51227463,0 L3.26307572e-05,0 L3.26307572e-05,1.22142857 L1.45308025,1.22142857 L4.06354083,12.825 L16.9680264,12.825 L16.9680264,11.6035714 L5.12273521,11.6035714 L4.97002326,10.9253732 L16.8045463,9.72806786 Z"></path>
                        <path d="M7.83138173,15.2678571 C7.83138173,16.2798107 6.95491959,17.1 5.8735363,17.1 C4.79215301,17.1 3.91569087,16.2798107 3.91569087,15.2678571 C3.91569087,14.2559036 4.79215301,13.4357143 5.8735363,13.4357143 C6.95491959,13.4357143 7.83138173,14.2559036 7.83138173,15.2678571"></path>
                        <path d="M15.6627635,15.2678571 C15.6627635,16.2798107 14.7863013,17.1 13.704918,17.1 C12.6235347,17.1 11.7470726,16.2798107 11.7470726,15.2678571 C11.7470726,14.2559036 12.6235347,13.4357143 13.704918,13.4357143 C14.7863013,13.4357143 15.6627635,14.2559036 15.6627635,15.2678571"></path>
                    </g>
                </g>
            </g>
        </g>
    </g>
</svg>