<?xml version="1.0" encoding="UTF-8" standalone="no"?>
<svg width="26px" height="26px" viewBox="0 0 26 26" version="1.1" xmlns="http://www.w3.org/2000/svg" xmlns:xlink="http://www.w3.org/1999/xlink" xmlns:sketch="http://www.bohemiancoding.com/sketch/ns">
    <g stroke="none" stroke-width="1" fill="none" fill-rule="evenodd">
        <g transform="translate(-594.000000, -769.000000)">
            <g transform="translate(83.000000, 157.000000)">
                <g transform="translate(445.000000, 612.000000)">
                    <g transform="translate(66.000000, 0.000000)">
                        <path d="M13.4370687,6.11764706 C9.71635094,6.11764706 7.84033613,8.78524287 7.84033613,11.009776 C7.84033613,12.3567075 8.35028443,13.5549946 9.44402481,14.0015364 C9.62337214,14.0748584 9.78401933,14.0040588 9.8360318,13.8054895 C9.87221438,13.6680652 9.95780011,13.3213734 9.99598317,13.176991 C10.0484305,12.9805961 10.0280778,12.9117101 9.88334748,12.7405386 C9.56796756,12.3685364 9.366441,11.8869427 9.366441,11.2047792 C9.366441,9.22569626 10.8471437,7.45396731 13.2221476,7.45396731 C15.3251734,7.45396731 16.4805807,8.73897092 16.4805807,10.4551213 C16.4805807,12.7131407 15.4812977,14.6189018 13.9978118,14.6189018 C13.178572,14.6189018 12.5652946,13.9413481 12.7618634,13.1103664 C12.9972242,12.1183025 13.4531595,11.0476111 13.4531595,10.3315265 C13.4531595,9.6905033 13.1090771,9.15585343 12.3969934,9.15585343 C11.5594883,9.15585343 10.8867184,10.022235 10.8867184,11.1828609 C10.8867184,11.9220816 11.1365174,12.4220275 11.1365174,12.4220275 C11.1365174,12.4220275 10.2794424,16.0534195 10.1292325,16.689398 C9.83003036,17.9559624 10.0842652,19.5085954 10.1057486,19.6654155 C10.1183603,19.7583074 10.2377803,19.7803996 10.2918802,19.7102089 C10.3691161,19.6094021 11.3665725,18.3779766 11.7056973,17.1475078 C11.8016333,16.7990764 12.2565249,14.9949049 12.2565249,14.9949049 C12.5285901,15.5138989 13.3238242,15.9710519 14.1695051,15.9710519 C16.686978,15.9710519 18.3949525,13.6759802 18.3949525,10.6039396 C18.3949525,8.28103508 16.4274375,6.11764706 13.4370687,6.11764706 L13.4370687,6.11764706 Z" fill="#B5B7BD"></path>
                    </g>
                </g>
            </g>
        </g>
    </g>
</svg>