<?xml version="1.0" encoding="UTF-8" standalone="no"?>
<svg width="26px" height="26px" viewBox="0 0 26 26" version="1.1" xmlns="http://www.w3.org/2000/svg" xmlns:xlink="http://www.w3.org/1999/xlink" xmlns:sketch="http://www.bohemiancoding.com/sketch/ns">
    <g stroke="none" stroke-width="1" fill="none" fill-rule="evenodd">
        <g transform="translate(-528.000000, -769.000000)">
            <g transform="translate(83.000000, 157.000000)">
                <g transform="translate(445.000000, 612.000000)">
                    <path d="M15.0564284,8.52721695 C13.9881802,8.91602501 13.3130473,9.9182858 13.3899612,11.0155886 L13.4155991,11.4389573 L12.9882998,11.3871163 C11.4329305,11.1883921 10.0741187,10.5144582 8.92041068,9.38259469 L8.35637563,8.82098304 L8.21109388,9.23571164 C7.90343839,10.1602108 8.09999606,11.1365511 8.74094498,11.7932047 C9.08278441,12.1560922 9.00587054,12.2079333 8.41619753,11.9919288 C8.21109388,11.9228074 8.03162818,11.8709663 8.01453621,11.8968868 C7.95471431,11.9573681 8.15981796,12.7436244 8.32219169,13.0546708 C8.54438732,13.4866798 8.99732455,13.9100486 9.49299172,14.1606138 L9.91174502,14.3593379 L9.41607785,14.3679781 C8.93750265,14.3679781 8.92041068,14.3766183 8.9716866,14.558062 C9.14260631,15.1196737 9.81773917,15.715846 10.5697859,15.9750514 L11.099637,16.1564952 L10.6381538,16.4329809 C9.95447494,16.8304291 9.1511523,17.0550738 8.34782965,17.0723542 C7.96326029,17.0809943 7.64705882,17.1155551 7.64705882,17.1414756 C7.64705882,17.2278774 8.68966907,17.7117274 9.29643405,17.9018114 C11.116729,18.463423 13.2788634,18.221498 14.9026006,17.2624381 C16.0563087,16.5798639 17.2100167,15.2233558 17.7484138,13.9100486 C18.0389774,13.2101941 18.3295409,11.9314475 18.3295409,11.3179948 C18.3295409,10.9205466 18.3551788,10.8687055 18.833754,10.3934957 C19.1157715,10.1170099 19.3806971,9.81460365 19.431973,9.72820186 C19.5174329,9.56403845 19.5088869,9.56403845 19.0730416,9.7109215 C18.3466328,9.97012687 18.244081,9.93556616 18.6030124,9.54675809 C18.867938,9.27027236 19.1841394,8.76914197 19.1841394,8.62225892 C19.1841394,8.59633838 19.0559496,8.63953928 18.9106679,8.71730089 C18.7568401,8.80370268 18.4150007,8.93330537 18.1586212,9.01106698 L17.6971379,9.15795003 L17.2783846,8.87282412 C17.047643,8.71730089 16.7228956,8.54449731 16.5519759,8.49265623 C16.1161306,8.37169373 15.4495437,8.38897408 15.0564284,8.52721695 L15.0564284,8.52721695 Z" fill="#B5B7BD"></path>
                </g>
            </g>
        </g>
    </g>
</svg>